<svg xmlns="http://www.w3.org/2000/svg" viewBox="0 0 660 429.82"><g id="Layer_2" data-name="Layer 2"><g id="Layer_1-2" data-name="Layer 1"><rect x="361.93" y="267.69" width="202.47" height="23.26"/><path d="M414.5.82c-.4.6-8.7,1-21.9,1H371.3l-69.4,69c-38.2,37.9-69.7,69-70,69s-31.5-31.1-69.1-69l-68.5-69H0L.2,212l.3,210.3,51.3.3,51.2.2V289.22c0-84.2.4-133.4,1-133.2s29.5,28.8,64.5,63.7l63.7,63.4,15.1-15c8.4-8.2,26.2-25.7,39.7-38.9s32.6-31.8,42.5-41.6c20.8-20.4,28.7-27.8,29.7-27.8.7,0,.3,1.6-3,11.5-2.2,6.5-17.9,51.8-29.2,84-2.3,6.6-4.2,12.7-4.3,13.5-.2,1.2,1.3,1.5,8.3,1.5,4.7,0,12.4.1,17.3.2l8.7.3v17H336c-11.5,0-21,.2-21,.3s-1.5,4.8-3.4,10.3c-7.9,22.7-37,106.4-39.2,112.9-1.4,3.8-3.1,8.8-3.8,11s-1.7,4.8-2.1,5.7c-.7,1.7,2.2,1.8,51.7,1.8h52.4l1.3-3.5,1.2-3.5,42.2-.2,42.2-.3.3-47.3.2-47.2,30.7.2,30.6.3,6.4,18.5c10.6,30.4,24.3,70.1,26.6,76.7l2.1,6.3h52.8c29,0,52.8-.3,52.8-.8s-1.4-4.5-3.1-9.2c-7.6-21.1-14.6-40.9-20.6-58-3.5-10.2-9.6-27.5-13.5-38.5s-10.1-29-13.9-40-8.6-24.5-10.5-30-3.9-11.1-4.4-12.5-5.9-16.7-12-34c-11.2-31.7-36.4-103.4-47.1-134-5.1-14.5-11.1-31.8-22.2-63.5l-3.2-9L462.3,0C431.4-.08,414.9.12,414.5.82ZM501.4,17c4.7,12.8,35.1,99.4,46.6,132.8,4.9,14,10.7,30.7,13,37s7.8,21.8,12.2,34.5c9.3,26.9,13,37.3,19.3,55,2.5,7.1,8.6,24.5,13.5,38.5,16.6,47.6,29.8,85.4,34,96.7l2,5.3H603c-30.4,0-39.2-.3-39.5-1.3-.2-.6-5.8-16.7-12.4-35.7s-14.3-41.4-17.2-49.8l-5.1-15.2-94,.2-94,.3-11.7,34.5c-6.5,19-12.7,37.1-13.9,40.3s-2.2,6-2.2,6.2,7.4.5,16.5.5H346l1.2-2.8c.6-1.5,4.3-12.4,8.4-24.2l7.3-21.5,11-.3c6.1-.1,11.1-.1,11.1.2s-4.2,12.5-9.3,27.2-10.3,30.2-11.7,34.1l-2.4,7.3-36.8.2c-20.2,0-37.4.1-38,.2-2.3.2-1.2-4.5,4.9-21.9,3.4-9.4,10.4-29.6,15.7-45s11.7-33.9,14.2-41,4.7-13.6,4.9-14.3c.4-1,22.6-1.2,108.6-1l108.2.3,6.5,18.5c3.5,10.2,11.4,33.1,17.6,51l11.2,32.5,16.4.3c9,.1,16.7-.1,17.1-.5s-2.4-9.4-6.1-19.8-9.1-25.8-12-34-7.6-21.8-10.5-30c-6.8-19-17.2-48.8-27-77-4.2-12.1-11-31.5-15-43s-11.1-32-15.8-45.5c-9.3-26.7-15.3-43.6-25.4-72-3.6-10.2-7.9-22.3-9.5-27s-3.5-9.7-4-11.3l-1.1-2.7-23.4.2-23.4.3-2.1,6c-4.5,13.6-15.4,45.2-21.5,62.5-3.6,10.2-9.6,27.5-13.4,38.5s-9.1,26.5-11.9,34.5c-5.8,16.4-23,67.1-23,67.7,0,.1,30.4.3,67.5.3s67.5-.1,67.5-.3c0-.5-7.8-23.1-13-37.7-2.9-8-8-22.8-11.5-33-10.3-30-14.3-41.1-15-41.3-.4-.1-1.4,1.8-2.2,4.3-4.3,12.8-19.9,58-23.5,67.7l-4.1,11.3H422.4c-5.8,0-10.4-.4-10.4-.9,0-.9,4.9-15.1,21.7-63.1,4.1-11.8,9.2-26.5,11.3-32.5s5.9-16.9,8.5-24,5.6-15.6,6.7-18.8,2.4-5.5,2.8-5,1.9,4.2,3.3,8.3,6.4,18.5,11.2,32,9.5,27,10.5,30,4,11.3,6.6,18.5,8.8,25.1,13.9,40,12.1,34.9,15.5,44.5,6.4,18.3,6.7,19.2c.5,1.7-4.5,1.8-95.4,1.8-52.8,0-96.2-.3-96.5-.6s.7-4.2,2.4-8.7c3.4-9.7,12.2-35.2,25.8-75.2,5.4-16,13.3-38.7,17.5-50.5s8.5-24,9.5-27,6.1-17.9,11.3-33c9.2-26.6,18.4-53.2,19.2-55.8.3-.9,8.8-1.2,37.9-1.2h37.4ZM160.7,86.82l71.6,72,72.1-72,72.1-72h16.8c9.2,0,16.7.4,16.7.8s-2.1,6.6-4.6,13.7c-5.7,16.1-20.6,59.3-28.2,82l-5.7,17-8,8c-4.4,4.4-23.3,22.8-42,41s-46.2,45.1-61.2,59.8-27.6,26.8-28.1,26.6-32.4-31.5-70.7-69.4S91.5,125.22,91,125s-1.1,50.1-1.2,142l-.3,142.3h-76L13.2,212,13,14.82H89ZM445,69c0,33,.4,30.2-9,56.8-7.4,21.1-19.2,54.8-26.6,76.1-3,8.6-5.4,16.3-5.4,17.2,0,2.3,3.1,2.7,22.8,2.7H445v16H410.5c-19,0-34.5-.4-34.5-.8s4.5-14.1,9.9-30.3c10.3-30.3,12.6-37.1,25.6-74.4,4.3-12.1,8.5-24.5,9.5-27.5s5.3-15.4,9.5-27.5,8.8-25.5,10.2-29.8,2.9-7.7,3.4-7.7S445,52.42,445,69Zm43.3-10.5c3.6,10.4,9.1,26,12.2,34.8s9.4,26.8,14,40,12.7,36.4,18,51.5,11.2,32,13,37.5,5,14.5,7,20,7.3,20.8,11.9,34,10.5,29.8,13.1,37,9.1,26,14.6,42,10.4,30,10.9,31.3a10.79,10.79,0,0,1,1,3.2c0,.6-4.5,1-10.4,1H583.2l-1.5-4.3c-1.7-5-24.1-69.2-30-86.2l-4.2-12-44.8-.3-44.7-.2v-8.4c0-7.2.3-8.5,1.8-9,.9-.3,18.6-.4,39.3-.2s38.2,0,38.9-.4c.9-.6-3.8-15.2-18.4-57.1-10.8-31-20.3-58-21.1-59.9s-5-14.1-9.5-27c-20.1-57.7-25.3-72-26.2-72-.3,0-1.2,1.7-1.8,3.7-2.3,7.2-3,5.8-3-6V39.82h23.7Zm-23,119.3c.8,2.5,3.4,9.9,5.7,16.5s6,16.8,8.1,22.7,3.9,11.5,3.9,12.3c0,1.3-1.8,1.5-12.2,1.3l-12.3-.3-.3-23c-.3-22.2,0-25.7,2.9-33.4C462.3,171,463.1,171.82,465.3,177.82ZM445,279.32v8.5H371v-17h74Zm-90.2,41.1c2.1.6,2.2,1,2.1,13.8v13.1l-7.3,21.5-7.3,21.5-9.3.3c-5.1.1-9.7-.1-10.1-.5s2.1-9.4,5.7-19.8,8.7-25.7,11.4-33.8,5.2-15.3,5.5-15.8C346.2,319.72,351.3,319.52,354.8,320.42Zm90,48.1-.3,40.8-32.7.3c-27.5.2-32.8,0-32.8-1.2s10.4-32.1,21.4-63.7A73.31,73.31,0,0,0,403,336c0-.9-4.4-1.2-16-1.2H371v-7h74Z"/><rect x="345.16" y="202.98" width="372.93" height="25.6" rx="12.8" transform="translate(562.83 -357.12) rotate(71.03)"/><rect x="592.43" y="377.7" width="12.3" height="17.14" rx="5.14" transform="translate(1232.38 61.02) rotate(120)"/><rect x="473.02" y="33.99" width="12.3" height="17.14" rx="5.14" transform="translate(755.6 -351.14) rotate(120)"/><rect x="316.76" y="127.02" width="208.85" height="23.3" transform="matrix(0.32, -0.95, 0.95, 0.32, 154.61, 493.02)"/><rect x="454.63" y="38.31" width="22.23" height="17.14" transform="translate(512.63 -418.87) rotate(90)"/><rect x="370.42" y="222.12" width="22.23" height="17.14" rx="8.57" transform="translate(612.23 -150.85) rotate(90)"/><rect x="391.78" y="219.04" width="93.55" height="23.3"/><rect x="451.91" y="201.89" width="29.66" height="19.33" transform="translate(-5.54 12.69) rotate(-1.55)"/><rect x="448.34" y="188.2" width="29.66" height="19.33" transform="translate(-5.18 12.58) rotate(-1.55)"/><rect x="454.18" y="168.21" width="19.33" height="29.66"/><rect x="302.57" y="347.14" width="76.55" height="19.94" transform="matrix(0.26, -0.97, 0.97, 0.26, -91.8, 594.87)"/><rect x="315.95" y="356.3" width="60.46" height="12.37" transform="matrix(0.31, -0.95, 0.95, 0.31, -105.62, 579.55)"/><rect x="315.5" y="341.07" width="60.46" height="12.37" transform="matrix(0.31, -0.95, 0.95, 0.31, -91.44, 568.6)"/></g></g></svg>